HIERARCHY
ROOT Hips
{
	OFFSET 0.00000 0.00000 0.00000
	CHANNELS 6 Xposition Yposition Zposition Zrotation Yrotation Xrotation 
	JOINT LHipJoint
	{
		OFFSET 0 0 0
		CHANNELS 3 Zrotation Yrotation Xrotation
		JOINT LeftHip
		{
			OFFSET 1.66553 -1.82942 0.76350
			CHANNELS 3 Zrotation Yrotation Xrotation
			JOINT LeftKnee
			{
				OFFSET 2.41740 -6.64177 0.00000
				CHANNELS 3 Zrotation Yrotation Xrotation
				JOINT LeftAnkle
				{
					OFFSET 2.71614 -7.46254 0.00000
					CHANNELS 3 Zrotation Yrotation Xrotation
					JOINT LeftToe
					{
						OFFSET 0.08005 -0.21993 1.82495
						CHANNELS 3 Zrotation Yrotation Xrotation
						End Site
						{
							OFFSET 0.00000 -0.00000 0.93441
						}
					}
				}
			}
		}
	}
	JOINT RHipJoint
	{
		OFFSET 0 0 0
		CHANNELS 3 Zrotation Yrotation Xrotation
		JOINT RightHip
		{
			OFFSET -1.63725 -1.82942 0.76350
			CHANNELS 3 Zrotation Yrotation Xrotation
			JOINT RightKnee
			{
				OFFSET -2.40538 -6.60872 0.00000
				CHANNELS 3 Zrotation Yrotation Xrotation
				JOINT RightAnkle
				{
					OFFSET -2.73312 -7.50919 0.00000
					CHANNELS 3 Zrotation Yrotation Xrotation
					JOINT RightToe
					{
						OFFSET -0.15567 -0.42769 1.93504
						CHANNELS 3 Zrotation Yrotation Xrotation
						End Site
						{
							OFFSET -0.00000 -0.00000 1.00100
						}
					}
				}
			}
		}
	}
	JOINT lowerback
	{
		OFFSET 0 0 0
		CHANNELS 3 Zrotation Yrotation Xrotation
		JOINT Chest
		{
			OFFSET 0.00326 2.30118 -0.13017
			CHANNELS 3 Zrotation Yrotation Xrotation
			JOINT Chest2
			{
				OFFSET 0.02887 2.30677 0.00834
				CHANNELS 3 Zrotation Yrotation Xrotation
				JOINT lowerneck
				{
					OFFSET 0 0 0
					CHANNELS 3 Zrotation Yrotation Xrotation
					JOINT Neck
					{
						OFFSET 0.12946 1.68326 0.00713
						CHANNELS 3 Zrotation Yrotation Xrotation
						JOINT Head
						{
							OFFSET -0.24364 1.67243 -0.16079
							CHANNELS 3 Zrotation Yrotation Xrotation
							End Site
							{
								OFFSET -0.09229 1.70819 -0.06383
							}
						}
					}
				}
				JOINT LeftCollar
				{
					OFFSET 0 0 0
					CHANNELS 3 Zrotation Yrotation Xrotation
					JOINT LeftShoulder
					{
						OFFSET 3.28104 0.69567 -0.00556
CHANNELS 3 Zrotation Xrotation Yrotation
						JOINT LeftElbow
						{
OFFSET 0 -5.707060 -0.000000
CHANNELS 3 Zrotation Xrotation Yrotation
							JOINT LeftWrist
							{
OFFSET 0 -3.332430 0.000000
CHANNELS 3 Zrotation Xrotation Yrotation
								JOINT lhand
								{
									OFFSET 0 0 0
CHANNELS 3 Zrotation Xrotation Yrotation
									JOINT LFingers
									{
OFFSET 0 -0.792690 0.000000
CHANNELS 3 Zrotation Xrotation Yrotation
										End Site
										{
OFFSET 0 -0.639090 0.000000
										}
									}
								}
								JOINT LThumb
								{
OFFSET 0 0.000000 0.000000
CHANNELS 3 Zrotation Xrotation Yrotation
									End Site
									{
OFFSET 0 -0.648840 0.648840
									}
								}
							}
						}
					}
				}
				JOINT RightCollar
				{
					OFFSET 0 0 0
					CHANNELS 3 Zrotation Yrotation Xrotation
					JOINT RightShoulder
					{
						OFFSET -3.40955 0.64424 0.14010
CHANNELS 3 Zrotation Xrotation Yrotation
						JOINT RightElbow
						{
OFFSET 0 -5.881760 -0.000000
CHANNELS 3 Zrotation Xrotation Yrotation
							JOINT RightWrist
							{
OFFSET 0 -3.281560 0.000000
CHANNELS 3 Zrotation Xrotation Yrotation
								JOINT rhand
								{
									OFFSET 0 0 0
CHANNELS 3 Zrotation Xrotation Yrotation
									JOINT RFingers
									{
OFFSET 0 -0.863130 0.000000
CHANNELS 3 Zrotation Xrotation Yrotation
										End Site
										{
OFFSET 0 -0.695870 0.000000
										}
									}
								}
								JOINT RThumb
								{
OFFSET 0 0.000000 0.000000
CHANNELS 3 Zrotation Xrotation Yrotation
									End Site
									{
OFFSET 0 -0.706500 0.706500
									}
								}
							}
						}
					}
				}
			}
		}
	}
}
MOTION
Frames: 6
Frame Time: 0.008333333333333333
16.539983 17.832920 -8.314491 8.104649 -41.668340 -7.251151 0.000000 0.000000 0.000000 -15.326067 -1.160567 -22.153211 9.408866 17.063761 57.493736 -0.402415 -11.181946 4.881621 2.061486 -8.992513 -25.772226 0.000000 0.000000 0.000000 8.641084 -3.139258 -10.655226 -6.737460 -15.106753 47.874159 -0.404429 5.779087 -11.433126 -0.047450 1.165845 -3.212423 0.440898 -0.837492 3.717142 7.176754 -0.653224 -6.924134 7.581291 -0.089937 -9.394943 18.072888 11.908835 9.936361 -18.595605 15.788309 -24.096413 -9.911510 7.781486 -5.688983 0.000000 0.000000 0.000000 122.256705 -17.562732 54.047230 17.470157 -27.473408 4.302058 18.732700 -45.855019 -28.288284 0.000000 0.000000 0.000000 -7.125000 0.000000 0.000000 -13.527519 59.075571 4.706432 0.000000 0.000000 0.000000 -104.823112 -32.714879 -8.808985 -33.677397 -43.844310 -13.889180 -23.576790 -14.307199 -17.407220 0.000000 0.000000 0.000000 7.125000 0.000000 0.000000 2.872076 11.113676 2.267688
16.804603 17.589621 -7.600674 15.209590 -53.991515 -12.488991 0.000000 0.000000 0.000000 -12.736802 -2.539203 -21.504111 7.399409 15.658882 50.368501 0.004726 -1.796777 -1.685780 0.743972 -5.500509 -15.344238 0.000000 0.000000 0.000000 5.788447 -1.014840 -9.267951 -5.548179 -13.975559 43.139821 -1.390905 -4.384602 -24.240755 -1.235139 7.035048 -19.824925 0.084268 -0.342545 4.555544 7.508475 -0.017097 -6.524858 8.100674 0.245348 -9.545577 13.682346 13.653166 12.211603 -17.925655 17.739115 -25.189359 -9.349366 9.008074 -6.568366 0.000000 0.000000 0.000000 131.031872 -11.301130 56.114410 17.848691 -27.962919 4.478090 15.872258 -44.193461 -25.776364 0.000000 0.000000 0.000000 -7.125000 0.000000 0.000000 -15.088405 55.996624 4.137071 0.000000 0.000000 0.000000 -91.421063 -33.572721 4.558902 -34.625966 -44.543156 -14.550372 -20.341577 -11.833019 -18.243050 0.000000 0.000000 0.000000 7.125000 0.000000 0.000000 5.057450 10.670321 4.049892
17.068610 17.168212 -6.911489 22.864634 -63.309145 -18.815181 0.000000 0.000000 0.000000 -8.258337 -8.119112 -18.761703 5.057631 13.447547 41.069458 -0.056220 6.002459 -6.749004 2.619839 -10.033596 -29.101843 0.000000 0.000000 0.000000 0.261893 2.584357 -11.239120 -5.283749 -13.696306 42.034457 -2.323053 -2.652364 -29.849082 -2.835576 10.423510 -30.359931 1.724504 1.427062 6.823371 6.813056 2.579718 -6.223886 6.030531 1.366143 -10.813609 13.643831 13.039611 11.855470 -17.875701 16.844192 -24.678359 -9.267097 8.574058 -6.501220 0.000000 0.000000 0.000000 137.175451 -8.173031 57.895666 21.588944 -32.508058 6.364098 13.325968 -50.486313 -22.840651 0.000000 0.000000 0.000000 -7.125000 0.000000 0.000000 -16.148980 52.660784 3.109839 0.000000 0.000000 0.000000 -75.947183 -25.433336 13.245967 -32.733435 -43.123387 -13.239750 -21.547688 -9.657513 -19.811499 0.000000 0.000000 0.000000 7.125000 0.000000 0.000000 4.384627 8.857748 3.668409
17.341923 16.630550 -6.289530 30.690622 -68.092161 -26.275885 0.000000 0.000000 0.000000 -4.257947 -12.553751 -16.723430 3.247165 11.084421 32.565640 -0.032123 4.996975 -5.929420 2.193701 -9.244641 -26.574276 0.000000 0.000000 0.000000 -4.372508 6.716996 -15.403433 -6.708098 -15.080441 47.760413 -3.498203 0.249201 -35.444123 -2.020778 8.909157 -25.511740 1.336203 1.714803 9.740440 7.353066 3.076331 -5.239121 6.738143 1.658414 -11.581690 14.125178 13.499721 12.353871 -17.748642 17.734384 -24.232140 -9.275333 8.975885 -6.270323 0.000000 0.000000 0.000000 138.242337 -4.149632 58.613565 28.516414 -39.585968 10.451583 13.722823 -54.858326 -20.547447 0.000000 0.000000 0.000000 -7.125000 0.000000 0.000000 -14.762099 50.490250 2.035383 0.000000 0.000000 0.000000 -62.147171 -17.007861 10.890766 -24.077448 -35.241144 -7.753310 -24.636689 -9.550952 -20.552075 0.000000 0.000000 0.000000 7.125000 0.000000 0.000000 2.472499 7.582381 2.126627
17.528335 16.030154 -5.572601 34.681311 -66.395365 -30.828433 0.000000 0.000000 0.000000 -5.162910 -14.133547 -19.271582 3.508220 11.473020 33.895537 0.157263 -2.561349 -7.050908 3.743442 -11.804971 -35.053414 0.000000 0.000000 0.000000 -10.294229 7.449385 -16.411377 -8.338446 -16.362480 53.772578 -4.398136 1.543616 -39.492562 -1.499638 7.732839 -21.906662 0.593208 1.401841 11.196570 7.508592 2.579395 -4.156669 7.408755 1.471166 -11.219667 16.248610 13.312575 12.546444 -19.335909 17.880744 -22.030045 -9.855932 9.163388 -5.191386 0.000000 0.000000 0.000000 138.116698 -3.336004 60.134104 32.406964 -42.869111 13.016909 16.541128 -56.992623 -15.619260 0.000000 0.000000 0.000000 -7.125000 0.000000 0.000000 -10.464530 45.970927 0.254105 0.000000 0.000000 0.000000 -50.954300 -4.187021 -9.492597 -14.156854 -22.954305 -2.891732 -26.923102 -6.241488 -12.213700 0.000000 0.000000 0.000000 7.125000 0.000000 0.000000 0.213784 16.335025 0.146703
17.668006 15.548512 -4.756328 27.299420 -65.146997 -24.769222 0.000000 0.000000 0.000000 -5.517451 -10.906549 -26.811758 6.366036 14.772406 46.430845 0.804198 -5.293593 -15.980904 5.044615 -13.433793 -41.014931 0.000000 0.000000 0.000000 -10.231502 8.292209 -14.142202 -9.111462 -16.878875 56.474809 -4.506634 -3.799397 -41.605816 -1.656502 8.106002 -23.039002 4.247985 0.995746 11.526336 9.289108 2.610212 -3.235130 7.276403 1.249260 -10.331980 17.652905 13.333875 13.459260 -19.696961 18.513873 -20.024037 -10.037967 9.531944 -4.444838 0.000000 0.000000 0.000000 136.375224 -2.530067 56.138769 33.909395 -44.017434 14.050034 21.120139 -56.996278 -15.554357 0.000000 0.000000 0.000000 -7.125000 0.000000 0.000000 -6.204114 46.500220 0.230043 0.000000 0.000000 0.000000 -41.761260 11.247532 -45.750772 -8.120800 -13.748332 -0.980828 -24.447650 12.269364 0.928789 0.000000 0.000000 0.000000 7.125000 0.000000 0.000000 1.691587 30.996551 0.576777
